HIERARCHY
ROOT Hips
{
	OFFSET 0.000000 0.000000 0.000000
	CHANNELS 6 Xposition Yposition Zposition Xrotation Yrotation Zrotation
	JOINT LeftUpLeg_virtual
	{
		OFFSET 0.000000 0.000000 0.000000
		CHANNELS 3 Xrotation Yrotation Zrotation
		JOINT LeftUpLeg
		{
			OFFSET 15.427100 -6.655098 0.678600
			CHANNELS 3 Xrotation Yrotation Zrotation
			JOINT LeftLeg
			{
				OFFSET 4.081073 -39.591068 13.024000
				CHANNELS 3 Xrotation Yrotation Zrotation
				JOINT LeftFoot
				{
					OFFSET -4.081074 -37.707932 -15.979700
					CHANNELS 3 Xrotation Yrotation Zrotation
					JOINT LeftToeBase
					{
						OFFSET 5.346399 -15.068900 20.645000
						CHANNELS 3 Xrotation Yrotation Zrotation
						JOINT LeftToe_End
						{
							OFFSET 2.754700 0.931300 11.300900
							CHANNELS 3 Xrotation Yrotation Zrotation
							End Site
							{
								OFFSET 0 0 0
							}
						}
					}
				}
			}
		}
	}
	JOINT RightUpLeg_virtual
	{
		OFFSET 0.000000 0.000000 0.000000
		CHANNELS 3 Xrotation Yrotation Zrotation
		JOINT RightUpLeg
		{
			OFFSET -15.569500 -6.655098 0.678600
			CHANNELS 3 Xrotation Yrotation Zrotation
			JOINT RightLeg
			{
				OFFSET -4.081825 -39.591045 13.023800
				CHANNELS 3 Xrotation Yrotation Zrotation
				JOINT RightFoot
				{
					OFFSET 4.081824 -37.707954 -15.979600
					CHANNELS 3 Xrotation Yrotation Zrotation
					JOINT RightToeBase
					{
						OFFSET -5.346400 -15.068900 20.645000
						CHANNELS 3 Xrotation Yrotation Zrotation
						JOINT RightToe_End
						{
							OFFSET -2.754700 0.931300 11.300900
							CHANNELS 3 Xrotation Yrotation Zrotation
							End Site
							{
								OFFSET 0 0 0
							}
						}
					}
				}
			}
		}
	}
	JOINT Spine_virtual
	{
		OFFSET 0.000000 0.000000 0.000000
		CHANNELS 3 Xrotation Yrotation Zrotation
		JOINT Spine
		{
			OFFSET -0.279200 12.230698 -2.892100
			CHANNELS 3 Xrotation Yrotation Zrotation
			JOINT Spine1
			{
				OFFSET -0.232667 10.192268 -1.242267
				CHANNELS 3 Xrotation Yrotation Zrotation
				JOINT Spine1_split
				{
					OFFSET -0.232667 10.192268 -1.242267
					CHANNELS 3 Xrotation Yrotation Zrotation
					JOINT Spine2
					{
						OFFSET -0.232667 10.192268 -1.242267
						CHANNELS 3 Xrotation Yrotation Zrotation
						JOINT Neck_virtual
						{
							OFFSET 0.000000 0.000000 0.000000
							CHANNELS 3 Xrotation Yrotation Zrotation
							JOINT Neck
							{
								OFFSET -0.418800 17.814194 8.416900
								CHANNELS 3 Xrotation Yrotation Zrotation
								JOINT Head
								{
									OFFSET 0.000000 7.031097 3.806800
									CHANNELS 3 Xrotation Yrotation Zrotation
									JOINT HeadTop_End
									{
										OFFSET 0.000000 24.646606 12.978600
										CHANNELS 3 Xrotation Yrotation Zrotation
										End Site
										{
											OFFSET 0 0 0
										}
									}
								}
							}
						}
						JOINT LeftShoulder_virtual
						{
							OFFSET 0.000000 0.000000 0.000000
							CHANNELS 3 Xrotation Yrotation Zrotation
							JOINT LeftShoulder
							{
								OFFSET 8.476499 7.247704 -3.868750
								CHANNELS 3 Xrotation Yrotation Zrotation
								JOINT LeftShoulder_split
								{
									OFFSET 8.476499 7.247704 -3.868750
									CHANNELS 3 Xrotation Yrotation Zrotation
									JOINT LeftArm
									{
										OFFSET 9.308998 -2.777710 0.208600
										CHANNELS 3 Xrotation Yrotation Zrotation
										JOINT LeftForeArm
										{
											OFFSET 29.972298 0.000000 0.000000
											CHANNELS 3 Xrotation Yrotation Zrotation
											JOINT LeftHand
											{
												OFFSET 26.026505 0.000000 0.000000
												CHANNELS 3 Xrotation Yrotation Zrotation
												End Site
												{
													OFFSET 0 0 0
												}
											}
										}
									}
								}
							}
						}
						JOINT RightShoulder_virtual
						{
							OFFSET 0.000000 0.000000 0.000000
							CHANNELS 3 Xrotation Yrotation Zrotation
							JOINT RightShoulder
							{
								OFFSET -7.570500 7.247704 -3.868750
								CHANNELS 3 Xrotation Yrotation Zrotation
								JOINT RightShoulder_split
								{
									OFFSET -7.570500 7.247704 -3.868750
									CHANNELS 3 Xrotation Yrotation Zrotation
									JOINT RightArm
									{
										OFFSET -9.308998 -2.777710 0.208500
										CHANNELS 3 Xrotation Yrotation Zrotation
										JOINT RightForeArm
										{
											OFFSET -29.972300 0.000000 0.000000
											CHANNELS 3 Xrotation Yrotation Zrotation
											JOINT RightHand
											{
												OFFSET -26.026505 0.000000 0.000000
												CHANNELS 3 Xrotation Yrotation Zrotation
												End Site
												{
													OFFSET 0 0 0
												}
											}
										}
									}
								}
							}
						}
					}
				}
			}
		}
	}
}
MOTION
Frames: 8
Frame Time: 0.03333333
59.208271 93.228394 28.834068 0.000000 0.000000 0.000000 6.660758 82.323785 -3.231079 -28.405094 -4.623867 -3.211220 9.468856 3.078807 2.543702 12.344189 -17.512957 -2.725764 6.660139 0.145308 -1.294664 0.000000 0.000000 0.000000 15.291048 84.198665 -11.658639 17.801754 -12.402069 3.278090 15.449446 12.647090 -4.338923 -11.749416 -29.362905 12.660751 -25.051799 7.144367 -4.410853 0.000000 0.000000 0.000000 9.685050 80.752329 -7.183690 4.808492 11.716024 -2.951690 -2.114232 9.055660 -2.647003 0.181317 -0.217186 -0.017855 0.000000 0.000000 0.000000 -1.547481 11.189450 -2.242687 16.118613 -15.773787 9.259119 -10.257142 -69.119793 -14.519659 0.000000 0.000000 0.000000 -3.816921 10.207441 -2.759238 -6.368565 -10.511745 -14.004130 4.459348 5.972232 -5.169579 45.563386 -58.519340 -12.647500 -11.519189 -58.902158 -5.116896 0.000000 0.000000 0.000000 -2.448465 9.939434 -3.090591 -3.211338 22.338298 14.574628 -7.586873 -0.978959 2.195175 0.047854 41.976864 56.454000 3.521775 28.498640 2.265060 0.000000 0.000000 0.000000 
58.454880 93.133469 28.524666 0.000000 0.000000 0.000000 4.718940 80.445907 -1.359438 -28.136985 -4.093873 -2.739454 9.223858 4.300495 2.518367 12.456272 -15.785190 -2.923601 7.116739 0.230170 -1.724960 0.000000 0.000000 0.000000 11.254382 82.229330 -7.665301 18.854563 -13.031656 2.921188 14.047742 11.507264 -4.461728 -16.650517 -30.260491 10.042743 -19.107531 6.890312 -5.122285 0.000000 0.000000 0.000000 8.299826 79.073585 -5.840794 4.972018 11.066798 -2.928061 -2.303676 8.458143 -2.058762 0.117924 -0.193805 -0.034198 0.000000 0.000000 0.000000 -1.721081 10.556027 -1.673381 16.143200 -14.967729 7.237210 -10.789672 -64.833549 -13.269400 0.000000 0.000000 0.000000 -3.986887 9.600013 -2.283905 -6.231874 -10.180376 -13.926339 3.885255 6.105923 -5.161974 44.405433 -58.798783 -14.031095 -10.967817 -56.749723 -5.154616 0.000000 0.000000 0.000000 -2.705327 9.402549 -2.545207 -3.178042 22.258818 14.690625 -7.870803 -1.270942 2.830029 -0.528990 40.212865 56.548973 3.817985 28.198443 1.888929 0.000000 0.000000 0.000000 
57.701950 93.068649 28.233427 0.000000 0.000000 0.000000 3.164249 78.281058 0.019682 -27.870696 -3.381657 -1.882339 9.177148 5.449130 2.381910 12.666503 -14.084158 -3.315823 7.513174 0.297283 -1.914979 0.000000 0.000000 0.000000 8.376776 80.166846 -4.916771 20.066949 -13.796438 2.719136 11.734014 10.047114 -4.593587 -20.791379 -31.696323 7.796948 -12.939057 6.709743 -5.986497 0.000000 0.000000 0.000000 6.661310 77.364993 -4.361774 5.195196 10.400290 -2.785576 -2.391103 7.791951 -1.563807 0.074643 -0.172067 -0.017040 0.000000 0.000000 0.000000 -1.841083 9.843468 -1.202281 15.925915 -14.099874 5.141266 -11.518783 -60.373920 -12.111162 0.000000 0.000000 0.000000 -4.109686 8.916511 -1.911323 -6.209760 -10.045195 -13.812828 3.463164 6.393487 -5.202998 42.672529 -59.083882 -15.825302 -10.580338 -55.123906 -5.315514 0.000000 0.000000 0.000000 -2.802224 8.798924 -2.070986 -3.140233 22.237730 14.759574 -7.959253 -1.762412 3.369888 -0.515331 38.929831 56.115875 3.926357 28.769426 1.552523 0.000000 0.000000 0.000000 
56.976673 92.970802 27.997643 0.000000 0.000000 0.000000 1.964958 75.862112 1.002439 -27.639011 -2.472020 -0.737638 9.449663 6.478643 2.155949 12.866088 -12.458877 -3.726920 7.612014 0.335545 -1.822246 0.000000 0.000000 0.000000 6.483484 77.977032 -3.178324 21.099849 -14.403351 2.564675 9.214747 8.900402 -4.787639 -23.049083 -33.269346 7.149459 -8.577777 6.625821 -6.838646 0.000000 0.000000 0.000000 4.969664 75.585196 -2.892350 5.491587 9.663493 -2.524705 -2.376149 7.049948 -1.155086 0.076681 -0.171168 0.007033 0.000000 0.000000 0.000000 -1.905444 9.044940 -0.817414 15.417759 -13.137830 3.009528 -12.196703 -55.624630 -10.996936 0.000000 0.000000 0.000000 -4.184100 8.153488 -1.627763 -6.298090 -10.125752 -13.753722 3.253559 6.785180 -5.148297 40.461569 -59.034322 -18.172789 -10.368562 -54.453625 -5.587364 0.000000 0.000000 0.000000 -2.766608 8.100995 -1.664365 -3.072597 22.211022 14.740938 -8.072608 -2.383070 3.893285 0.475365 38.181850 54.847590 3.913456 30.812291 1.198963 0.000000 0.000000 0.000000 
56.249176 92.816505 27.882561 0.000000 0.000000 0.000000 1.148919 73.191774 1.635543 -27.476968 -1.379157 0.607423 10.056954 7.341793 1.842753 12.980561 -10.988765 -4.004973 7.434692 0.348968 -1.516130 0.000000 0.000000 0.000000 5.048926 75.568052 -1.889436 21.761143 -14.835792 2.439919 7.154175 8.223561 -5.036000 -23.717933 -34.671321 7.829947 -5.459047 6.580375 -7.620653 0.000000 0.000000 0.000000 3.412504 73.707174 -1.569812 5.848193 8.841083 -2.160395 -2.267467 6.259013 -0.818697 0.118160 -0.177432 0.030644 0.000000 0.000000 0.000000 -1.905004 8.184825 -0.493550 14.594868 -12.043818 0.912938 -12.695594 -50.460949 -10.016279 0.000000 0.000000 0.000000 -4.203241 7.323538 -1.395066 -6.452056 -10.323896 -13.739536 3.162015 7.213520 -5.134079 37.828064 -58.423027 -21.168358 -10.394307 -54.920725 -5.977994 0.000000 0.000000 0.000000 -2.655803 7.322373 -1.313191 -2.968136 22.151663 14.620964 -8.181655 -3.037549 4.403446 2.514825 37.875588 52.699062 3.814386 34.511556 0.771955 0.000000 0.000000 0.000000 
55.425510 92.596573 27.808075 0.000000 0.000000 0.000000 0.477433 70.365989 2.156094 -27.374336 -0.100474 2.023421 10.926644 7.996666 1.471392 12.947397 -9.696616 -3.983556 7.076844 0.328136 -1.053271 0.000000 0.000000 0.000000 3.718595 72.880208 -0.704588 21.858446 -15.032809 2.281048 5.933978 8.052379 -5.244382 -23.924599 -35.474667 8.888555 -2.435018 6.477497 -8.268778 0.000000 0.000000 0.000000 2.041014 71.720183 -0.422650 6.218616 7.940325 -1.733062 -2.100257 5.460542 -0.534187 0.155340 -0.195310 0.041936 0.000000 0.000000 0.000000 -1.842289 7.299294 -0.213179 13.424880 -10.849421 -1.073415 -12.815212 -44.953498 -9.233259 0.000000 0.000000 0.000000 -4.175733 6.472654 -1.179493 -6.632240 -10.600915 -13.759901 3.093056 7.611845 -5.013311 35.178490 -57.281532 -24.516853 -10.589167 -56.326446 -6.433253 0.000000 0.000000 0.000000 -2.528905 6.493722 -0.999818 -2.831247 22.005773 14.410275 -8.210059 -3.552279 4.779418 5.271109 37.744998 50.104789 3.753432 39.757069 0.185769 0.000000 0.000000 0.000000 
54.487095 92.342850 27.771244 0.000000 0.000000 0.000000 -0.016395 67.344846 2.559991 -27.223684 1.223226 3.369861 11.762013 8.318022 1.098061 12.761831 -8.579905 -3.648217 6.743431 0.257039 -0.528522 0.000000 0.000000 0.000000 2.411282 69.939088 0.426244 21.398476 -15.151964 1.928136 5.835400 8.200519 -5.348228 -23.976643 -35.407868 9.945926 0.090589 6.320610 -8.691142 0.000000 0.000000 0.000000 0.944997 69.508383 0.530076 6.519637 7.001288 -1.275024 -1.918015 4.701886 -0.283178 0.190001 -0.203125 0.019820 0.000000 0.000000 0.000000 -1.731694 6.451485 0.039206 11.882587 -9.601835 -2.895710 -12.589861 -39.465581 -8.708260 0.000000 0.000000 0.000000 -4.098493 5.649140 -0.963547 -6.787537 -10.866642 -13.744321 2.902125 7.676304 -4.732980 32.865941 -55.730970 -27.927537 -10.863161 -58.263248 -6.859891 0.000000 0.000000 0.000000 -2.412447 5.678359 -0.716058 -2.679649 21.684739 14.176785 -8.080922 -3.741103 4.890872 8.253615 37.497448 47.588728 3.847386 46.020264 -0.612112 0.000000 0.000000 0.000000 
53.378090 92.103516 27.727837 0.000000 0.000000 0.000000 -0.408277 64.260674 2.898188 -26.960003 2.483499 4.625030 12.382202 8.227888 0.733366 12.483863 -7.659216 -3.178945 6.652043 0.153130 -0.040082 0.000000 0.000000 0.000000 1.195073 66.887961 1.463134 20.422394 -15.276905 1.369856 6.562995 8.615421 -5.320137 -23.545826 -34.528116 11.106887 1.491914 6.133239 -8.861407 0.000000 0.000000 0.000000 0.074001 67.044263 1.325489 6.683627 6.094485 -0.825063 -1.742867 4.040944 -0.067750 0.190981 -0.172529 -0.005124 0.000000 0.000000 0.000000 -1.610279 5.702139 0.268060 10.057441 -8.394471 -4.487337 -11.991182 -34.390679 -8.416589 0.000000 0.000000 0.000000 -3.991783 4.912678 -0.747381 -6.878882 -11.058810 -13.670016 2.619268 7.470450 -4.466062 30.928773 -54.126923 -31.275822 -11.039253 -60.120445 -7.092386 0.000000 0.000000 0.000000 -2.315778 4.947984 -0.464961 -2.534033 21.159088 13.949003 -7.682476 -3.747357 4.846376 10.833223 36.911555 45.666293 4.134919 52.479991 -1.616931 0.000000 0.000000 0.000000 
